<svg width="22" height="26" viewBox="0 0 22 26" fill="none" xmlns="http://www.w3.org/2000/svg">
<mask id="mask0_449_1684" style="mask-type:luminance" maskUnits="userSpaceOnUse" x="0" y="0" width="22" height="21">
<path fill-rule="evenodd" clip-rule="evenodd" d="M0 0H21.5797V20.2393H0V0Z" fill="white"/>
</mask>
<g mask="url(#mask0_449_1684)">
<path fill-rule="evenodd" clip-rule="evenodd" d="M10.7882 1.75C6.71068 1.75 3.86868 4.94433 3.86868 7.81083C3.86868 10.2363 3.19552 11.3575 2.60052 12.3468C2.12335 13.1413 1.74652 13.769 1.74652 15.1328C1.94135 17.3332 3.39385 18.4893 10.7882 18.4893C18.1417 18.4893 19.6397 17.2818 19.8334 15.057C19.8299 13.769 19.453 13.1413 18.9758 12.3468C18.3808 11.3575 17.7077 10.2363 17.7077 7.81083C17.7077 4.94433 14.8657 1.75 10.7882 1.75M10.7882 20.2393C5.33285 20.2393 0.402516 19.8543 1.55805e-05 15.2075C-0.00348442 13.2848 0.583349 12.3072 1.10135 11.4462C1.62518 10.5735 2.11868 9.751 2.11868 7.81083C2.11868 4.039 5.60235 0 10.7882 0C15.974 0 19.4577 4.039 19.4577 7.81083C19.4577 9.751 19.9512 10.5735 20.475 11.4462C20.993 12.3072 21.5799 13.2848 21.5799 15.1328C21.1727 19.8543 16.2435 20.2393 10.7882 20.2393" fill="#022161"/>
</g>
<path fill-rule="evenodd" clip-rule="evenodd" d="M10.7312 25.0837H10.7289C9.42103 25.0825 8.18319 24.5062 7.24403 23.4597C6.92086 23.1015 6.95003 22.5474 7.30936 22.2254C7.66869 21.901 8.22169 21.9302 8.54486 22.2907C9.14919 22.9639 9.92503 23.3337 10.73 23.3337H10.7312C11.5397 23.3337 12.319 22.9639 12.9245 22.2895C13.2489 21.9314 13.8019 21.9022 14.16 22.2254C14.5194 22.5485 14.5485 23.1027 14.2254 23.4609C13.2827 24.5074 12.0425 25.0837 10.7312 25.0837" fill="#022161"/>
</svg>
