<svg width="19" height="24" viewBox="0 0 19 24" fill="none" xmlns="http://www.w3.org/2000/svg">
<mask id="mask0_449_1694" style="mask-type:luminance" maskUnits="userSpaceOnUse" x="0" y="14" width="19" height="10">
<path fill-rule="evenodd" clip-rule="evenodd" d="M0 14.5786H18.4799V23.1816H0V14.5786Z" fill="white"/>
</mask>
<g mask="url(#mask0_449_1694)">
<path fill-rule="evenodd" clip-rule="evenodd" d="M9.24117 16.3286C4.27 16.3286 1.75 17.1826 1.75 18.8684C1.75 20.5694 4.27 21.4316 9.24117 21.4316C14.2112 21.4316 16.73 20.5776 16.73 18.8918C16.73 17.1908 14.2112 16.3286 9.24117 16.3286M9.24117 23.1816C6.95567 23.1816 0 23.1816 0 18.8684C0 15.0231 5.2745 14.5786 9.24117 14.5786C11.5267 14.5786 18.48 14.5786 18.48 18.8918C18.48 22.7371 13.2067 23.1816 9.24117 23.1816" fill="#022161"/>
</g>
<mask id="mask1_449_1694" style="mask-type:luminance" maskUnits="userSpaceOnUse" x="3" y="0" width="13" height="13">
<path fill-rule="evenodd" clip-rule="evenodd" d="M3.04492 0H15.435V12.3884H3.04492V0Z" fill="white"/>
</mask>
<g mask="url(#mask1_449_1694)">
<path fill-rule="evenodd" clip-rule="evenodd" d="M9.24113 1.66551C6.74329 1.66551 4.71096 3.69668 4.71096 6.19451C4.70279 8.68418 6.71996 10.7142 9.20729 10.7235L9.24113 11.5565V10.7235C11.7378 10.7235 13.769 8.69118 13.769 6.19451C13.769 3.69668 11.7378 1.66551 9.24113 1.66551M9.24112 12.3883H9.20379C5.79479 12.3778 3.03329 9.59768 3.04496 6.19101C3.04496 2.77851 5.82396 -0.000488281 9.24112 -0.000488281C12.6571 -0.000488281 15.435 2.77851 15.435 6.19451C15.435 9.61051 12.6571 12.3883 9.24112 12.3883" fill="#022161"/>
</g>
</svg>
