<svg width="24" height="25" viewBox="0 0 24 25" fill="none" xmlns="http://www.w3.org/2000/svg">
<mask id="mask0_449_1672" style="mask-type:luminance" maskUnits="userSpaceOnUse" x="0" y="0" width="23" height="23">
<path fill-rule="evenodd" clip-rule="evenodd" d="M0 0H22.7229V22.7232H0V0Z" fill="white"/>
</mask>
<g mask="url(#mask0_449_1672)">
<path fill-rule="evenodd" clip-rule="evenodd" d="M11.3617 1.75C6.06151 1.75 1.74951 6.06083 1.74951 11.361C1.74951 16.6612 6.06151 20.9732 11.3617 20.9732C16.6607 20.9732 20.9727 16.6612 20.9727 11.361C20.9727 6.06083 16.6607 1.75 11.3617 1.75M11.3617 22.7232C5.09668 22.7232 -0.000488281 17.626 -0.000488281 11.361C-0.000488281 5.096 5.09668 0 11.3617 0C17.6267 0 22.7227 5.096 22.7227 11.361C22.7227 17.626 17.6267 22.7232 11.3617 22.7232" fill="#022161"/>
</g>
<mask id="mask1_449_1672" style="mask-type:luminance" maskUnits="userSpaceOnUse" x="17" y="18" width="7" height="7">
<path fill-rule="evenodd" clip-rule="evenodd" d="M17.7798 18.3247H23.6412V24.1752H17.7798V18.3247Z" fill="white"/>
</mask>
<g mask="url(#mask1_449_1672)">
<path fill-rule="evenodd" clip-rule="evenodd" d="M22.7664 24.1752C22.5436 24.1752 22.3196 24.0901 22.1481 23.9197L18.0367 19.8201C17.6949 19.4782 17.6937 18.9241 18.0356 18.5822C18.3762 18.2381 18.9304 18.2404 19.2734 18.5799L23.3847 22.6807C23.7266 23.0226 23.7277 23.5756 23.3859 23.9174C23.2156 24.0901 22.9904 24.1752 22.7664 24.1752" fill="#022161"/>
</g>
</svg>
